<svg xmlns="http://www.w3.org/2000/svg" xmlns:xlink="http://www.w3.org/1999/xlink" width="466.5" height="434.83889722824097" viewBox="0 0 466.5 434.83889722824097" fill="none">
<path   fill="url(#linear_border_0_3_0)"  d="M21.0403 23.05L151.54 172.55L133.46 188.333L2.95972 38.8327L21.0403 23.05ZM132.439 173.902L239.369 9.39368L249.43 15.9335L239.369 9.39368C246.899 -2.19191 264.88 2.97927 265.105 16.7954L265.105 16.7954L268.998 255.746L245.002 256.137L241.108 17.1864L253.107 16.9909L241.108 17.1865C241.269 27.0551 254.112 30.7488 259.491 22.4734L259.491 22.4734L152.561 186.981L132.439 173.902ZM154.499 180.271L157.905 420.674L145.907 420.844L157.905 420.673C157.765 410.783 144.885 407.078 139.511 415.382L139.511 415.382L246.926 249.421L267.074 262.462L159.659 428.422L149.585 421.902L159.659 428.422C152.135 440.047 134.104 434.86 133.908 421.014L133.908 421.014L130.501 180.611L154.499 180.271ZM266.04 248.05L396.54 397.55L378.46 413.333L247.96 263.833L266.04 248.05ZM12 42.9414C5.37258 42.9414 0 37.5688 0 30.9414C0 24.314 5.37258 18.9414 12 18.9414C18.6274 18.9414 24 24.314 24 30.9414C24 37.5688 18.6274 42.9414 12 42.9414ZM387.5 417.441C380.873 417.441 375.5 412.069 375.5 405.441C375.5 398.814 380.873 393.441 387.5 393.441C394.127 393.441 399.5 398.814 399.5 405.441C399.5 412.069 394.127 417.441 387.5 417.441Z">
</path>
<path   fill="url(#linear_border_0_2_0)"  d="M88.0403 20.05L218.54 169.55L200.46 185.333L69.9597 35.8327L88.0403 20.05ZM199.439 170.902L306.369 6.39368L316.43 12.9335L306.369 6.39368C313.899 -5.19191 331.88 -0.0207324 332.105 13.7954L332.105 13.7954L335.998 252.746L312.002 253.137L308.108 14.1864L320.107 13.9909L308.108 14.1865C308.269 24.0551 321.112 27.7488 326.491 19.4734L326.491 19.4734L219.561 183.981L199.439 170.902ZM221.499 177.271L224.905 417.674L212.907 417.844L224.905 417.673C224.765 407.783 211.885 404.078 206.511 412.382L206.511 412.382L313.926 246.421L334.074 259.462L226.659 425.422L216.585 418.902L226.659 425.422C219.135 437.047 201.104 431.86 200.908 418.014L200.908 418.014L197.501 177.611L221.499 177.271ZM333.04 245.05L463.54 394.55L445.46 410.333L314.96 260.833L333.04 245.05ZM79 39.9414C72.3726 39.9414 67 34.5688 67 27.9414C67 21.314 72.3726 15.9414 79 15.9414C85.6274 15.9414 91 21.314 91 27.9414C91 34.5688 85.6274 39.9414 79 39.9414ZM454.5 414.441C447.873 414.441 442.5 409.069 442.5 402.441C442.5 395.814 447.873 390.441 454.5 390.441C461.127 390.441 466.5 395.814 466.5 402.441C466.5 409.069 461.127 414.441 454.5 414.441Z">
</path>
<defs>
<linearGradient id="linear_border_0_3_0" x1="10.7120361328125" y1="28.92281484603882" x2="389.4526062011719" y2="408.5387568473816" gradientUnits="userSpaceOnUse">
<stop offset="0" stop-color="#484848"  />
<stop offset="1" stop-color="#B2B1E8"  />
</linearGradient>
<linearGradient id="linear_border_0_2_0" x1="79" y1="27.011186122894287" x2="454.5" y2="403.2577815055847" gradientUnits="userSpaceOnUse">
<stop offset="0" stop-color="#232323"  />
<stop offset="1" stop-color="#5F54BC"  />
</linearGradient>
</defs>
</svg>
